HIERARCHY
ROOT Hips
{
	OFFSET 0.000000 0.000000 0.000000
	CHANNELS 6 Xposition Yposition Zposition Xrotation Yrotation Zrotation
	JOINT LeftUpLeg_virtual
	{
		OFFSET 0.000000 0.000000 0.000000
		CHANNELS 3 Xrotation Yrotation Zrotation
		JOINT LeftUpLeg
		{
			OFFSET 11.394100 -6.187798 -0.413800
			CHANNELS 3 Xrotation Yrotation Zrotation
			JOINT LeftLeg
			{
				OFFSET 0.430247 -32.302673 3.732800
				CHANNELS 3 Xrotation Yrotation Zrotation
				JOINT LeftFoot
				{
					OFFSET -0.430247 -48.264931 -6.423300
					CHANNELS 3 Xrotation Yrotation Zrotation
					JOINT LeftToeBase
					{
						OFFSET 4.230900 -16.068199 23.438400
						CHANNELS 3 Xrotation Yrotation Zrotation
						JOINT LeftToe_End
						{
							OFFSET 4.510700 0.695400 19.974600
							CHANNELS 3 Xrotation Yrotation Zrotation
							End Site
							{
								OFFSET 0 0 0
							}
						}
					}
				}
			}
		}
	}
	JOINT RightUpLeg_virtual
	{
		OFFSET 0.000000 0.000000 0.000000
		CHANNELS 3 Xrotation Yrotation Zrotation
		JOINT RightUpLeg
		{
			OFFSET -11.333700 -6.187798 -0.413800
			CHANNELS 3 Xrotation Yrotation Zrotation
			JOINT RightLeg
			{
				OFFSET -0.430392 -32.302628 3.733000
				CHANNELS 3 Xrotation Yrotation Zrotation
				JOINT RightFoot
				{
					OFFSET 0.430392 -48.264973 -6.423500
					CHANNELS 3 Xrotation Yrotation Zrotation
					JOINT RightToeBase
					{
						OFFSET -4.230900 -16.068199 23.438400
						CHANNELS 3 Xrotation Yrotation Zrotation
						JOINT RightToe_End
						{
							OFFSET -4.510700 0.695400 19.974600
							CHANNELS 3 Xrotation Yrotation Zrotation
							End Site
							{
								OFFSET 0 0 0
							}
						}
					}
				}
			}
		}
	}
	JOINT Spine_virtual
	{
		OFFSET 0.000000 0.000000 0.000000
		CHANNELS 3 Xrotation Yrotation Zrotation
		JOINT Spine
		{
			OFFSET -0.002400 12.777504 0.315300
			CHANNELS 3 Xrotation Yrotation Zrotation
			JOINT Spine1
			{
				OFFSET -0.002067 5.816869 0.032633
				CHANNELS 3 Xrotation Yrotation Zrotation
				JOINT Spine1_split
				{
					OFFSET -0.002067 5.816869 0.032633
					CHANNELS 3 Xrotation Yrotation Zrotation
					JOINT Spine2
					{
						OFFSET -0.002067 5.816869 0.032633
						CHANNELS 3 Xrotation Yrotation Zrotation
						JOINT Neck_virtual
						{
							OFFSET 0.000000 0.000000 0.000000
							CHANNELS 3 Xrotation Yrotation Zrotation
							JOINT Neck
							{
								OFFSET -0.003700 21.199493 -0.826900
								CHANNELS 3 Xrotation Yrotation Zrotation
								JOINT Head
								{
									OFFSET 0.000000 20.442200 4.834800
									CHANNELS 3 Xrotation Yrotation Zrotation
									JOINT HeadTop_End
									{
										OFFSET 0.000000 34.668396 4.968400
										CHANNELS 3 Xrotation Yrotation Zrotation
										End Site
										{
											OFFSET 0 0 0
										}
									}
								}
							}
						}
						JOINT LeftShoulder_virtual
						{
							OFFSET 0.000000 0.000000 0.000000
							CHANNELS 3 Xrotation Yrotation Zrotation
							JOINT LeftShoulder
							{
								OFFSET 3.288150 8.794197 -1.372250
								CHANNELS 3 Xrotation Yrotation Zrotation
								JOINT LeftShoulder_split
								{
									OFFSET 3.288150 8.794197 -1.372250
									CHANNELS 3 Xrotation Yrotation Zrotation
									JOINT LeftArm
									{
										OFFSET 11.953299 -2.279007 -0.146200
										CHANNELS 3 Xrotation Yrotation Zrotation
										JOINT LeftForeArm
										{
											OFFSET 18.448900 0.000000 0.000000
											CHANNELS 3 Xrotation Yrotation Zrotation
											JOINT LeftHand
											{
												OFFSET 29.527798 0.000000 0.000000
												CHANNELS 3 Xrotation Yrotation Zrotation
												End Site
												{
													OFFSET 0 0 0
												}
											}
										}
									}
								}
							}
						}
						JOINT RightShoulder_virtual
						{
							OFFSET 0.000000 0.000000 0.000000
							CHANNELS 3 Xrotation Yrotation Zrotation
							JOINT RightShoulder
							{
								OFFSET -3.249400 8.794197 -1.372250
								CHANNELS 3 Xrotation Yrotation Zrotation
								JOINT RightShoulder_split
								{
									OFFSET -3.249400 8.794197 -1.372250
									CHANNELS 3 Xrotation Yrotation Zrotation
									JOINT RightArm
									{
										OFFSET -11.953299 -2.279007 -0.146200
										CHANNELS 3 Xrotation Yrotation Zrotation
										JOINT RightForeArm
										{
											OFFSET -18.448900 0.000000 0.000000
											CHANNELS 3 Xrotation Yrotation Zrotation
											JOINT RightHand
											{
												OFFSET -29.527802 0.000000 0.000000
												CHANNELS 3 Xrotation Yrotation Zrotation
												End Site
												{
													OFFSET 0 0 0
												}
											}
										}
									}
								}
							}
						}
					}
				}
			}
		}
	}
}
MOTION
Frames: 9
Frame Time: 0.03333333
4.003036 97.745972 0.454781 0.000000 0.000000 0.000000 -15.076384 -55.854671 -8.576013 -28.323014 -0.253672 12.229201 28.811558 -11.066704 2.014697 8.559083 -8.143627 1.993323 -13.605383 -7.452280 3.743562 0.000000 0.000000 0.000000 -11.693602 -53.701027 -6.848218 -1.090768 -8.971510 -15.039518 25.990243 2.699798 -2.875716 -15.910830 -7.906093 29.274382 -3.609074 -2.644889 -2.807538 0.000000 0.000000 0.000000 -15.905682 -46.298348 -8.012149 6.487830 5.638900 -0.778694 10.728345 10.403493 -3.721670 0.456983 -1.711356 0.523150 0.000000 0.000000 0.000000 10.982885 9.526219 -4.106159 -5.904582 -3.655495 1.069260 -3.093498 20.551705 0.645300 0.000000 0.000000 0.000000 9.854128 9.381994 -3.426215 2.713614 1.445762 -3.663771 -5.819316 1.168537 -6.102806 -14.333212 -3.426103 -56.088660 2.150514 -54.049182 1.429378 0.000000 0.000000 0.000000 10.288366 9.888067 -3.060652 2.421646 8.439231 9.326727 -3.373750 4.995151 -0.350874 -1.059713 -28.034650 65.985385 -9.140394 51.946853 9.879965 0.000000 0.000000 0.000000 
4.283690 98.580948 0.245243 0.000000 0.000000 0.000000 -14.399058 -55.706251 -8.098493 -28.602503 -0.240712 13.006905 28.500254 -11.297840 1.964509 8.039679 -8.518381 4.060770 -12.541362 -6.849697 2.484524 0.000000 0.000000 0.000000 -11.020112 -52.989618 -6.540451 -0.788571 -9.091975 -15.285250 23.270615 2.661251 -3.059023 -16.079843 -7.159630 27.356240 -0.349413 -3.045870 -2.051337 0.000000 0.000000 0.000000 -15.721934 -46.508230 -8.357018 6.510547 5.571225 -0.649972 11.064392 10.385381 -3.684717 0.960586 -0.904013 0.452892 0.000000 0.000000 0.000000 11.020549 9.523591 -4.003191 -6.140971 -3.465678 1.200912 -2.939321 21.233851 0.411313 0.000000 0.000000 0.000000 10.363944 9.376676 -3.418594 2.735771 1.112416 -3.839557 -5.121647 1.321274 -5.871859 -12.938489 -2.153854 -57.169042 1.888389 -52.559317 1.416708 0.000000 0.000000 0.000000 10.846437 9.965102 -3.120759 2.344636 8.974082 10.171192 -4.031922 4.514413 -0.085891 -0.530606 -28.477104 65.681872 -8.718205 50.766672 9.632991 0.000000 0.000000 0.000000 
4.801825 98.810577 -0.917053 0.000000 0.000000 0.000000 -12.894052 -54.689796 -7.178413 -30.690656 -0.342828 14.422426 28.202387 -11.295309 1.617207 8.443289 -8.505666 3.230853 -9.148366 -5.736821 0.581914 0.000000 0.000000 0.000000 -9.991261 -51.224995 -6.143159 -2.817392 -9.415073 -15.311898 23.575697 3.014241 -3.045795 -16.984816 -5.606977 22.262674 2.473912 -3.002854 -1.645631 0.000000 0.000000 0.000000 -15.161169 -45.785231 -8.443126 6.821817 5.186263 -0.753285 11.738367 10.240051 -3.642331 1.528194 -0.094354 0.448285 0.000000 0.000000 0.000000 11.425015 9.415137 -3.896339 -7.540105 -3.012265 1.487147 -2.973856 21.391890 0.226321 0.000000 0.000000 0.000000 11.190756 9.258880 -3.465090 2.695370 0.918232 -3.570572 -4.433216 0.977904 -4.451996 -12.386066 -0.679879 -59.588572 3.031184 -51.320832 2.847549 0.000000 0.000000 0.000000 11.815613 9.909342 -3.313322 2.430626 9.625846 11.076519 -4.357577 3.907043 0.015662 -1.378888 -26.770150 64.132813 -7.960616 49.902021 8.782323 0.000000 0.000000 0.000000 
5.353655 98.130615 -3.159859 0.000000 0.000000 0.000000 -10.995901 -53.320589 -6.228744 -34.109886 -0.586434 15.733050 27.730406 -10.759522 1.334248 9.742947 -7.856734 -0.052450 -6.037629 -4.490741 -1.191040 0.000000 0.000000 0.000000 -8.449379 -48.746773 -5.477956 -7.270403 -10.263373 -15.060108 28.029922 3.776874 -2.725911 -16.753023 -3.085916 15.319293 2.095852 -2.882748 -1.413612 0.000000 0.000000 0.000000 -13.900547 -44.454597 -7.970961 7.262211 4.478938 -1.049110 12.695483 9.929060 -3.586333 1.624058 0.153966 0.797538 0.000000 0.000000 0.000000 12.241685 9.160546 -3.802343 -9.982277 -2.339131 1.924810 -3.343037 21.015198 0.151454 0.000000 0.000000 0.000000 12.332776 8.988438 -3.546996 2.633567 0.997286 -2.861645 -3.857180 0.455567 -2.463854 -13.730680 0.229903 -62.522698 4.565610 -49.554638 4.823071 0.000000 0.000000 0.000000 13.082974 9.665973 -3.555845 2.645641 10.312274 11.683893 -4.417911 3.184598 -0.155378 -3.864258 -23.213118 61.547333 -7.103207 50.032153 7.443286 0.000000 0.000000 0.000000 
5.779573 96.387192 -6.005604 0.000000 0.000000 0.000000 -8.607975 -51.606365 -5.092720 -38.558511 -0.880604 16.504804 27.052540 -9.392228 1.382482 11.750934 -6.919587 -4.216941 -4.992264 -3.318418 -2.255854 0.000000 0.000000 0.000000 -6.839931 -46.214231 -4.812158 -14.501596 -11.998049 -14.661040 36.089497 5.250357 -2.305489 -13.771874 0.078985 8.542438 -3.359419 -2.942011 -1.442482 0.000000 0.000000 0.000000 -11.773453 -42.531496 -6.879578 7.692527 3.558017 -1.468182 13.946519 9.405954 -3.513063 1.804502 0.206248 1.356771 0.000000 0.000000 0.000000 13.441537 8.699363 -3.739456 -13.338581 -1.625320 2.498140 -4.302841 19.900595 0.277367 0.000000 0.000000 0.000000 13.753012 8.507956 -3.665874 2.573308 1.251210 -1.877864 -3.450876 0.009296 -0.784766 -16.619215 0.112280 -64.996012 5.267017 -47.098502 6.243000 0.000000 0.000000 0.000000 14.546645 9.185476 -3.772144 2.984318 10.924716 11.678617 -4.603368 2.612194 -0.390880 -7.230123 -18.378349 58.527522 -6.370126 51.821953 5.689095 0.000000 0.000000 0.000000 
5.808397 93.756432 -8.386559 0.000000 0.000000 0.000000 -5.483073 -48.938715 -3.536374 -44.548311 -1.100412 16.409374 26.514014 -7.360080 1.878162 14.519517 -6.483073 -7.528322 -6.046864 -2.402950 -2.418403 0.000000 0.000000 0.000000 -4.803923 -43.518608 -3.818010 -23.474216 -14.512484 -14.067348 46.252528 7.735553 -2.311967 -9.332912 3.382577 2.446064 -11.830003 -3.288502 -1.572042 0.000000 0.000000 0.000000 -8.542697 -40.145478 -5.285001 8.134162 2.550013 -1.868213 15.539389 8.663711 -3.467434 1.943357 0.310961 1.595137 0.000000 0.000000 0.000000 15.051850 8.045987 -3.715549 -17.334750 -1.141828 3.148261 -5.868112 18.194108 0.640981 0.000000 0.000000 0.000000 15.433992 7.837085 -3.837380 2.507024 1.589462 -0.818588 -3.098062 -0.435216 0.211571 -20.172486 -1.115047 -66.159125 4.520795 -44.783631 6.545787 0.000000 0.000000 0.000000 16.183266 8.484552 -3.945769 3.433656 11.425777 10.958031 -4.958547 2.344607 -0.798603 -10.539556 -13.595433 55.701190 -5.714948 55.342229 3.445998 0.000000 0.000000 0.000000 
5.429785 90.524200 -10.362877 0.000000 0.000000 0.000000 -1.623159 -44.948567 -1.689414 -52.605789 -1.234985 15.839762 26.787964 -5.116162 2.666008 18.023853 -7.226040 -8.536189 -7.115396 -1.902890 -2.335466 0.000000 0.000000 0.000000 -1.779279 -40.233731 -2.222738 -32.405143 -17.753287 -13.166288 56.577397 10.622803 -3.063754 -6.445057 6.423142 -4.169791 -18.857478 -3.752170 -1.522518 0.000000 0.000000 0.000000 -4.266793 -37.304222 -3.373074 8.606325 1.665699 -2.226307 17.438286 7.743815 -3.500973 2.032329 0.140361 1.590145 0.000000 0.000000 0.000000 16.995143 7.222794 -3.741555 -21.718577 -1.013165 3.693206 -8.004554 15.909922 1.292770 0.000000 0.000000 0.000000 17.312149 7.014258 -4.090226 2.473235 1.798369 0.090669 -2.605303 -1.255250 0.607626 -23.461736 -3.464634 -65.631438 2.360751 -43.871562 5.711736 0.000000 0.000000 0.000000 17.998353 7.627002 -4.082668 3.975471 11.959450 9.784250 -5.315223 2.897040 -1.362852 -13.248941 -10.113205 53.672405 -4.877136 60.246257 0.588567 0.000000 0.000000 0.000000 
4.615399 86.820312 -12.106873 0.000000 0.000000 0.000000 2.896989 -39.457412 0.227494 -63.265754 -1.776022 15.046656 28.685340 -3.375377 3.314197 22.097071 -9.772356 -7.473885 -7.506557 -1.764871 -2.097817 0.000000 0.000000 0.000000 2.066590 -36.005253 -0.340721 -39.695987 -21.360814 -11.672938 65.558123 13.112712 -4.343091 -7.397730 9.113998 -11.748744 -21.765960 -4.039832 -1.219561 0.000000 0.000000 0.000000 0.524410 -33.664032 -1.569182 9.156009 1.057109 -2.558667 19.578394 6.705434 -3.649972 1.852265 0.010217 1.310708 0.000000 0.000000 0.000000 19.187837 6.306307 -3.849611 -26.115532 -1.342287 3.980335 -10.550029 12.992601 2.117650 0.000000 0.000000 0.000000 19.305028 6.132517 -4.417951 2.463435 1.804224 0.792685 -2.307445 -2.122789 0.353335 -25.359439 -6.625708 -63.102076 -0.636411 -46.060518 3.906405 0.000000 0.000000 0.000000 19.988158 6.707372 -4.222749 4.578038 12.688502 8.260210 -5.377544 4.096196 -2.022221 -14.960232 -8.591593 52.503565 -3.459796 66.088787 -3.058584 0.000000 0.000000 0.000000 
3.684450 82.593346 -13.242107 0.000000 0.000000 0.000000 7.395926 -32.760207 1.742316 -75.778668 -2.867122 13.998292 33.875686 -2.815007 3.481972 26.208611 -13.761796 -5.826748 -8.269766 -1.778076 -1.455128 0.000000 0.000000 0.000000 6.486624 -30.617327 1.467145 -44.895670 -24.774249 -9.456096 73.667436 15.027473 -6.071406 -12.554641 11.814426 -19.179383 -21.964983 -3.955698 -1.025277 0.000000 0.000000 0.000000 5.368137 -29.191160 -0.041122 9.809132 0.794354 -2.832320 21.746469 5.658545 -3.939661 1.280466 -0.071204 1.177112 0.000000 0.000000 0.000000 21.443726 5.408294 -4.061333 -30.024436 -2.045397 3.994151 -13.298032 9.555404 2.962881 0.000000 0.000000 0.000000 21.288636 5.293362 -4.820582 2.492497 1.536262 1.395838 -2.188793 -3.128572 -0.074709 -25.448253 -9.904165 -58.378945 -4.036859 -51.784906 1.151094 0.000000 0.000000 0.000000 22.033437 5.819821 -4.445510 5.219919 13.809835 6.595925 -4.639633 5.460093 -2.726292 -16.181283 -8.949661 51.585834 -0.754229 72.148511 -7.948789 0.000000 0.000000 0.000000 
